# Blender v3.1.2 OBJ File: ''
# www.blender.org
mtllib tetra.mtl
o tetrahedron1
v -0.322409 0.677451 -0.332030
v -0.322409 -0.322549 -0.332030
v -0.322409 -0.322550 0.667970
v 0.677591 -0.322549 -0.332030
vt -0.001000 0.996078
vt -0.001000 0.496078
vt 0.499000 0.496078
vt 0.001461 1.001000
vt 0.001461 0.501000
vt 0.501461 0.501000
vt 0.000000 0.565670
vt 0.500000 0.565670
vt 0.247002 1.000000
vt 0.498539 0.505921
vt 0.998539 0.505921
vt 0.998539 1.005921
vn -1.0000 -0.0000 0.0000
vn 0.0000 0.0000 -1.0000
vn 0.5774 0.5774 0.5774
vn 0.0000 -1.0000 -0.0000
usemtl Default_OBJ
s off
f 1/1/1 2/2/1 3/3/1
f 2/4/2 1/5/2 4/6/2
f 3/7/3 4/8/3 1/9/3
f 4/10/4 3/11/4 2/12/4
